<?xml version="1.0" encoding="utf-8"?>
<!-- Generator: Adobe Illustrator 15.1.0, SVG Export Plug-In . SVG Version: 6.00 Build 0)  -->
<!DOCTYPE svg PUBLIC "-//W3C//DTD SVG 1.1//EN" "http://www.w3.org/Graphics/SVG/1.1/DTD/svg11.dtd">
<svg version="1.1" id="Layer_1" xmlns="http://www.w3.org/2000/svg" xmlns:xlink="http://www.w3.org/1999/xlink" x="0px" y="0px"
	 width="146.988px" height="67.566px" viewBox="0 0 146.988 67.566" enable-background="new 0 0 146.988 67.566"
	 xml:space="preserve">
<g>
	<path fill="#FFFFFF" d="M141.019,64.19c0.041,1.072,0.497,1.761,0.887,2.157c0.551,0.56,1.322,0.879,2.117,0.877
		c0.351-0.001,0.694-0.063,1.019-0.185c1.203-0.449,1.93-1.582,1.944-3.044l0.002-14.859c0-9.969-4.979-15.238-14.397-15.238
		c-3.703,0-6.38,1.512-8.067,3.03l0.002-13.378c0.022-1.2-0.466-1.957-0.882-2.383c-0.55-0.562-1.32-0.883-2.114-0.883
		c-0.351,0-0.695,0.061-1.021,0.181c-1.204,0.446-1.934,1.577-1.952,3.04l-0.002,2.315V64.19c0.041,1.072,0.496,1.761,0.887,2.157
		c0.551,0.56,1.323,0.879,2.116,0.877c0.351-0.001,0.695-0.063,1.021-0.185c1.203-0.449,1.93-1.582,1.943-3.044l0.002-16.602
		c0-4.889,4.156-7.527,8.067-7.527c7.332,0,8.428,5.507,8.428,8.788V64.19z"/>
	<path fill="#FFFFFF" d="M113.909,58.481c-0.72,0-1.426,0.263-2.043,0.759c-1.884,1.519-4.105,2.288-6.602,2.288
		c-6.066,0-11.19-4.987-11.19-10.892c0-6.069,5.021-11.01,11.19-11.01c2.445,0,4.733,0.774,6.61,2.234
		c0.644,0.509,1.37,0.776,2.103,0.776l0,0c1.282,0,2.421-0.816,2.836-2.033c0.432-1.262-0.039-2.618-1.224-3.537
		c-2.859-2.237-6.526-3.47-10.326-3.47c-6.52,0-12.201,3.658-15.084,9.021c1.097,2.396,1.708,5.057,1.708,7.857
		c0,2.861-0.632,5.58-1.762,8.021c2.865,5.382,8.576,9.06,15.138,9.06c3.813,0,7.484-1.256,10.332-3.534
		c1.151-0.915,1.598-2.257,1.165-3.499C116.334,59.302,115.188,58.481,113.909,58.481z"/>
	<path fill="#FFFFFF" d="M27.14,57.915c-0.994-2.359-1.498-4.862-1.498-7.438c0-2.892,0.65-5.633,1.811-8.09
		c-1.875-5.58-6.421-8.488-13.417-8.488c-3.865,0-6.472,1.563-8.064,3.023v-0.043c0.022-1.2-0.467-1.958-0.883-2.383
		c-0.549-0.562-1.32-0.884-2.114-0.884c-0.351,0-0.695,0.062-1.021,0.182c-1.204,0.445-1.934,1.576-1.951,3.04L0,39.149v24.817
		c-0.019,1.2,0.473,1.957,0.889,2.381c0.551,0.56,1.323,0.879,2.117,0.877c0.351-0.001,0.694-0.063,1.02-0.185
		c0.769-0.287,1.342-0.854,1.66-1.607c0.254-0.884,0.283-2.054,0.283-3.442V47.395c0-4.889,4.157-7.527,8.067-7.527
		c7.333,0,8.428,5.507,8.428,8.788v15.53c0.04,1.074,0.496,1.765,0.887,2.162c0.551,0.56,1.323,0.879,2.116,0.877
		c0.351-0.001,0.695-0.063,1.021-0.185c1.204-0.449,1.93-1.582,1.944-3.044v-3.555C27.942,59.636,27.51,58.793,27.14,57.915z"/>
	<path fill="#FFFFFF" d="M61.66,55.326l-2.292-4.698c-0.014-0.027-0.028-0.054-0.046-0.08c0-0.002,0-0.003-0.001-0.005
		c-0.251-0.395-0.774-0.512-1.17-0.263c-0.048,0.03-0.093,0.065-0.133,0.104l-4.028,3.215c-0.132,0.105-0.226,0.245-0.276,0.399
		c-0.013,0.118-0.026,0.235-0.038,0.354c0.004,0.033,0.007,0.067,0.016,0.101c0.074,0.316,0.322,0.565,0.641,0.637l0.326,0.073
		c-0.212,0.547-0.454,1.048-0.723,1.464c-2,2.96-5.397,4.912-9.245,4.912c-2.86,0-5.47-1.091-7.438-2.878
		c-2.225-2.026-3.623-4.945-3.623-8.184c0-6.039,4.965-10.951,11.07-10.951c2.403,0,4.629,0.757,6.451,2.036
		c0.015,0.01,0.496,0.354,0.984,0.7c0.526,0.208,1.005,0.239,1.37,0.21c0.792-0.062,1.541-0.449,2.056-1.064
		c0.228-0.272,0.403-0.578,0.522-0.91c0.436-1.222,0.032-2.521-1.09-3.483l-0.116-0.1c-2.843-2.112-6.369-3.366-10.186-3.366
		c-9.362,0-16.979,7.59-16.979,16.919c0,4.984,2.144,9.476,5.555,12.594c3.005,2.753,6.997,4.438,11.373,4.454v0.043
		c0.003,0,0.006,0,0.01,0v0.009c4.181,0,8.007-1.512,10.966-4.018c0.713-0.597,1.379-1.25,1.987-1.955
		c-0.005-0.005-0.008-0.011-0.012-0.018c0.987-1.163,1.821-2.613,2.469-4.188c-0.006,0.008-0.014,0.015-0.021,0.021
		c0.129-0.313,0.251-0.631,0.366-0.952l0.308,0.069c0.319,0.071,0.649-0.046,0.851-0.302c0.089-0.111,0.145-0.242,0.169-0.378
		c0.003-0.069,0.007-0.138,0.012-0.206C61.735,55.533,61.709,55.425,61.66,55.326z"/>
	<path fill="#FFFFFF" d="M89.372,47.085c-1.584-7.709-8.469-13.528-16.695-13.528c-5.128,0-9.732,2.278-12.848,5.872
		c0.003,0.006,0.006,0.01,0.009,0.015c-0.001,0.003-0.003,0.005-0.006,0.007c0.004,0.005,0.006,0.008,0.01,0.013
		c-1.079,1.238-1.979,2.801-2.666,4.5c0.005-0.007,0.013-0.013,0.019-0.019c-0.474,1.167-0.843,2.399-1.1,3.636
		c-0.007,0.019-0.013,0.036-0.019,0.054c-0.004,0.021-0.007,0.044-0.012,0.064c-0.003,0.021-0.006,0.039-0.006,0.061
		c0,0.262,0.213,0.476,0.475,0.476c0.088,0,0.169-0.025,0.239-0.067l0.07-0.05c0.028-0.025,0.053-0.053,0.075-0.082l1.783-1.281
		c0.044-0.038,0.092-0.072,0.144-0.101c0.428-0.241,0.97-0.09,1.21,0.338c0.002,0.001,0.002,0.001,0.002,0.003
		c0.016,0.027,0.03,0.057,0.043,0.086l0.243,0.569c0.001,0.002,0.002,0.004,0.002,0.005c0.001,0.001,0.002,0.002,0.002,0.005
		c0.019,0.033,0.037,0.066,0.051,0.103l0.5,1.17c0.014,0.069,0.041,0.132,0.079,0.188c0.091,0.13,0.242,0.216,0.412,0.216
		c0.207,0,0.385-0.126,0.461-0.305c0.025-0.061,0.04-0.126,0.04-0.196c0-0.011-0.003-0.021-0.003-0.033
		c0.192-1.162,0.466-2.36,0.816-3.074c0.001,0.006,0.003,0.013,0.004,0.018c1.792-3.664,5.589-6.197,9.972-6.197
		c5.369,0,9.863,3.759,10.903,8.743c0.146,0.706,0.223,1.438,0.223,2.187c0,6.104-4.992,11.069-11.13,11.069
		c-2.338,0-4.508-0.731-6.297-1.974c-0.041-0.03-0.083-0.06-0.124-0.088c-0.025-0.015-0.307-0.243-0.651-0.522
		c-0.596-0.279-1.144-0.32-1.55-0.288c-0.792,0.062-1.542,0.449-2.057,1.064c-0.227,0.272-0.403,0.578-0.521,0.909
		c-0.436,1.223-0.032,2.523,1.09,3.485l0.342,0.287c2.764,1.962,6.137,3.117,9.773,3.117c9.396,0,17.04-7.645,17.04-17.041
		C89.721,49.329,89.601,48.188,89.372,47.085z"/>
</g>
<path fill="#FFFFFF" d="M59.141,0.169c-8.638-0.926-16.287,2.108-23.979,5.165c-2.92-0.695-5.845-1.387-8.801-1.885
	c-4.334-0.731-6.966,3.593-6.125,6.716c-0.521,0.096-1.044,0.186-1.572,0.261c-6.363,0.906-3.646,10.541,2.658,9.643
	c4.939-0.704,9.627-2.506,14.282-4.394c6.466,1.502,12.948,2.815,19.66,2.247c4.231-0.358,5.674-4.882,4.291-7.728
	C65.54,10.409,65.342,0.834,59.141,0.169z"/>
</svg>
