<?xml version="1.0" encoding="utf-8"?>
<!-- Generator: Adobe Illustrator 15.1.0, SVG Export Plug-In . SVG Version: 6.00 Build 0)  -->
<!DOCTYPE svg PUBLIC "-//W3C//DTD SVG 1.1//EN" "http://www.w3.org/Graphics/SVG/1.1/DTD/svg11.dtd">
<svg version="1.1" id="Layer_1" xmlns="http://www.w3.org/2000/svg" xmlns:xlink="http://www.w3.org/1999/xlink" x="0px" y="0px"
	 width="70.606px" height="83.471px" viewBox="0 0 70.606 83.471" enable-background="new 0 0 70.606 83.471" xml:space="preserve">
<path fill="#41ABE1" d="M34.857,0.712c-9.597,0-16.073,3.881-20.027,7.508V8.111c0.055-2.981-1.161-4.863-2.192-5.915
	C11.272,0.8,9.359,0,7.388,0C6.515,0,5.664,0.154,4.852,0.452C1.863,1.557,0.049,4.368,0.005,8l-0.003,5.75v61.63
	c-0.049,2.979,1.172,4.857,2.205,5.909c1.37,1.39,3.287,2.185,5.259,2.182c0.87-0.005,1.723-0.161,2.533-0.459
	c1.908-0.712,3.332-2.124,4.122-3.995c0.631-2.191,0.702-5.098,0.702-8.546V34.225c0-12.139,10.326-18.688,20.035-18.688
	c18.208,0,20.928,13.671,20.928,21.822v38.564c0.097,2.665,1.23,4.38,2.202,5.366c1.369,1.39,3.283,2.185,5.256,2.182
	c0.871-0.005,1.726-0.161,2.535-0.459c2.983-1.114,4.789-3.934,4.824-7.563l0.004-36.896C70.606,13.795,58.243,0.712,34.857,0.712z"
	/>
</svg>
