<?xml version="1.0" encoding="utf-8"?>
<!-- Generator: Adobe Illustrator 15.1.0, SVG Export Plug-In . SVG Version: 6.00 Build 0)  -->
<!DOCTYPE svg PUBLIC "-//W3C//DTD SVG 1.1//EN" "http://www.w3.org/Graphics/SVG/1.1/DTD/svg11.dtd">
<svg version="1.1" id="Layer_1" xmlns="http://www.w3.org/2000/svg" xmlns:xlink="http://www.w3.org/1999/xlink" x="0px" y="0px"
	 width="343.192px" height="110.394px" viewBox="0 0 343.192 110.394" enable-background="new 0 0 343.192 110.394"
	 xml:space="preserve">
<g>
	<path fill="#3EAAE0" d="M329.255,102.511c0.096,2.503,1.159,4.111,2.069,5.036c1.288,1.308,3.088,2.054,4.943,2.048
		c0.819-0.001,1.62-0.146,2.38-0.43c2.809-1.049,4.506-3.693,4.54-7.107l0.004-34.695c0-23.275-11.624-35.578-33.614-35.578
		c-8.646,0-14.896,3.531-18.835,7.077l0.005-31.236c0.053-2.803-1.089-4.571-2.06-5.563C287.404,0.75,285.607,0,283.751,0
		c-0.819,0-1.622,0.142-2.383,0.423c-2.811,1.041-4.515,3.682-4.558,7.097l-0.006,5.406v89.584c0.097,2.503,1.159,4.111,2.071,5.036
		c1.286,1.308,3.089,2.054,4.94,2.048c0.819-0.001,1.622-0.146,2.383-0.43c2.809-1.049,4.507-3.693,4.537-7.107l0.006-38.762
		c0-11.414,9.703-17.574,18.835-17.574c17.119,0,19.678,12.857,19.678,20.518V102.511z"/>
	<path fill="#3EAAE0" d="M265.958,89.183c-1.682,0-3.331,0.611-4.771,1.771c-4.399,3.546-9.585,5.342-15.413,5.342
		c-14.163,0-26.128-11.644-26.128-25.429c0-14.172,11.722-25.706,26.128-25.706c5.709,0,11.052,1.808,15.433,5.217
		c1.502,1.187,3.199,1.811,4.91,1.811l0,0c2.992,0,5.652-1.906,6.622-4.746c1.009-2.947-0.091-6.114-2.856-8.26
		c-6.675-5.223-15.236-8.1-24.108-8.1c-15.224,0-28.487,8.54-35.219,21.063c2.561,5.596,3.988,11.808,3.988,18.346
		c0,6.682-1.477,13.029-4.115,18.728c6.69,12.565,20.024,21.152,35.346,21.152c8.903,0,17.475-2.933,24.122-8.251
		c2.688-2.139,3.731-5.27,2.72-8.17C271.621,91.097,268.944,89.183,265.958,89.183z"/>
	<path fill="#3EAAE0" d="M63.367,87.858c-2.32-5.508-3.498-11.352-3.498-17.367c0-6.75,1.519-13.151,4.229-18.887
		c-4.379-13.03-14.992-19.82-31.326-19.82c-9.023,0-15.11,3.651-18.829,7.06v-0.102c0.052-2.802-1.091-4.572-2.061-5.563
		c-1.283-1.312-3.082-2.063-4.936-2.063c-0.819,0-1.623,0.143-2.384,0.425c-2.811,1.039-4.515,3.68-4.556,7.096l-0.006,5.406v57.946
		c-0.045,2.802,1.103,4.568,2.076,5.557c1.286,1.308,3.089,2.054,4.941,2.048c0.82-0.001,1.622-0.146,2.382-0.43
		c1.796-0.67,3.134-1.995,3.876-3.754c0.594-2.063,0.661-4.794,0.661-8.037V63.296c0-11.414,9.705-17.574,18.834-17.574
		c17.122,0,19.678,12.857,19.678,20.518v36.26c0.092,2.51,1.158,4.121,2.07,5.048c1.286,1.308,3.089,2.054,4.941,2.048
		c0.82-0.001,1.622-0.146,2.382-0.43c2.81-1.049,4.506-3.693,4.538-7.107l0.001-8.299C65.239,91.878,64.23,89.909,63.367,87.858z"/>
	<path fill="#74BE45" d="M143.964,81.814l-5.353-10.969c-0.032-0.065-0.066-0.126-0.107-0.188c0-0.003-0.001-0.007-0.003-0.01
		c-0.586-0.922-1.808-1.196-2.731-0.613c-0.112,0.07-0.217,0.152-0.311,0.24l-9.405,7.506c-0.309,0.248-0.526,0.573-0.645,0.933
		c-0.03,0.276-0.062,0.55-0.087,0.825c0.009,0.078,0.017,0.158,0.036,0.235c0.172,0.739,0.752,1.321,1.496,1.487l0.76,0.172
		c-0.495,1.275-1.06,2.445-1.688,3.416c-4.671,6.912-12.602,11.469-21.584,11.469c-6.679,0-12.772-2.545-17.365-6.719
		c-5.194-4.73-8.459-11.547-8.459-19.107c0-14.099,11.594-25.568,25.847-25.568c5.611,0,10.809,1.767,15.062,4.753
		c0.034,0.023,1.157,0.829,2.297,1.635c1.228,0.485,2.346,0.559,3.198,0.492c1.848-0.144,3.598-1.05,4.801-2.487
		c0.532-0.635,0.941-1.35,1.218-2.124c1.018-2.853,0.075-5.887-2.545-8.135l-0.271-0.23c-6.638-4.932-14.871-7.86-23.782-7.86
		c-21.86,0-39.645,17.72-39.645,39.503c0,11.638,5.006,22.123,12.969,29.404c7.018,6.428,16.337,10.361,26.554,10.398v0.102
		c0.008,0,0.015,0,0.022,0v0.02c9.761,0,18.695-3.529,25.604-9.381c1.665-1.393,3.22-2.918,4.64-4.564
		c-0.011-0.012-0.019-0.025-0.027-0.041c2.306-2.715,4.251-6.101,5.766-9.779c-0.015,0.018-0.032,0.033-0.048,0.051
		c0.302-0.73,0.587-1.473,0.854-2.225l0.72,0.163c0.744,0.167,1.516-0.106,1.987-0.704c0.209-0.262,0.338-0.565,0.395-0.883
		c0.007-0.163,0.017-0.322,0.027-0.482C144.141,82.298,144.08,82.046,143.964,81.814z"/>
	<path fill="#74BE45" d="M208.668,62.573c-3.7-18-19.773-31.587-38.98-31.587c-11.974,0-22.725,5.32-29.998,13.71
		c0.007,0.013,0.015,0.023,0.021,0.035c-0.003,0.006-0.008,0.01-0.014,0.015c0.009,0.011,0.014,0.02,0.022,0.031
		c-2.519,2.89-4.622,6.54-6.225,10.506c0.013-0.016,0.03-0.028,0.044-0.042c-1.106,2.725-1.969,5.602-2.568,8.489
		c-0.016,0.042-0.03,0.084-0.043,0.125c-0.01,0.05-0.018,0.102-0.029,0.15c-0.006,0.049-0.014,0.092-0.014,0.141
		c0,0.612,0.497,1.111,1.11,1.111c0.204,0,0.395-0.061,0.559-0.158l0.162-0.115c0.065-0.059,0.124-0.123,0.175-0.191l4.164-2.993
		c0.102-0.089,0.215-0.167,0.336-0.234c0.998-0.563,2.265-0.208,2.826,0.789c0.004,0.003,0.004,0.003,0.006,0.007
		c0.037,0.065,0.07,0.133,0.101,0.201l0.567,1.33c0.002,0.004,0.004,0.008,0.006,0.011c0.002,0.002,0.005,0.005,0.005,0.011
		c0.045,0.077,0.086,0.156,0.12,0.24l1.168,2.732c0.032,0.161,0.096,0.307,0.185,0.436c0.213,0.304,0.564,0.506,0.962,0.506
		c0.483,0,0.898-0.295,1.077-0.713c0.06-0.141,0.094-0.293,0.094-0.457c0-0.025-0.007-0.051-0.008-0.078
		c0.447-2.714,1.089-5.512,1.904-7.178c0.004,0.014,0.007,0.029,0.011,0.041c4.186-8.555,13.049-14.469,23.283-14.469
		c12.536,0,23.028,8.777,25.456,20.413c0.341,1.65,0.521,3.357,0.521,5.105c0,14.251-11.656,25.845-25.987,25.845
		c-5.46,0-10.526-1.706-14.704-4.608c-0.096-0.069-0.193-0.138-0.288-0.205c-0.06-0.033-0.716-0.566-1.521-1.219
		c-1.393-0.652-2.671-0.748-3.619-0.674c-1.849,0.145-3.6,1.051-4.803,2.486c-0.53,0.637-0.94,1.351-1.218,2.123
		c-1.017,2.854-0.074,5.891,2.546,8.137l0.798,0.672c6.454,4.58,14.329,7.276,22.818,7.276c21.938,0,39.785-17.849,39.785-39.786
		C209.483,67.812,209.202,65.147,208.668,62.573z"/>
</g>
</svg>
