<?xml version="1.0" encoding="utf-8"?>
<!-- Generator: Adobe Illustrator 15.0.2, SVG Export Plug-In . SVG Version: 6.00 Build 0)  -->
<!DOCTYPE svg PUBLIC "-//W3C//DTD SVG 1.1//EN" "http://www.w3.org/Graphics/SVG/1.1/DTD/svg11.dtd">
<svg version="1.1" id="Layer_1" xmlns="http://www.w3.org/2000/svg" xmlns:xlink="http://www.w3.org/1999/xlink" x="0px" y="0px"
	 width="640px" height="960px" viewBox="0 0 640 960" preserveAspectRatio="xMinYMin slice" enable-background="new 0 0 640 960" xml:space="preserve">
<radialGradient id="SVGID_1_" cx="313" cy="314" r="407.9215" fx="167.6648" fy="128.3738" gradientUnits="userSpaceOnUse">
	<stop  offset="0" style="stop-color:#BFBFBF"/>
	<stop  offset="0.3184" style="stop-color:#797979"/>
	<stop  offset="0.6421" style="stop-color:#383838"/>
	<stop  offset="0.8783" style="stop-color:#101010"/>
	<stop  offset="1" style="stop-color:#000000"/>
</radialGradient>
<rect id="background" fill="url(#SVGID_1_)" width="640" height="960"/>
<g id="logo2">
	<path fill="#E3E3E3" d="M548.051,210.009c-0.257-6.317-1.999-11.413-5.223-15.291c-3.226-3.878-7.726-5.818-13.518-5.818
		c-6.574,0-11.571,1.838-14.993,5.52c-3.417,3.683-5.455,8.881-6.111,15.59H548.051z M421.792,191.267h-18.736
		c-2.869-6.452-2.68-14.988-0.902-21.191L422,170.183l0.115-34.714c8.773-2.295,17.872-2.292,27.299,0.002v34.489h23.87
		c0.395,1.974,0.657,3.748,0.791,5.327c0.131,1.58,0.195,3.222,0.195,4.929c0,1.843-0.064,3.618-0.195,5.33
		c-0.134,1.71-0.396,3.615-0.791,5.722h-23.87v40.049c0,4.074,0.333,7.363,0.989,9.864c0.652,2.494,1.609,4.47,2.857,5.918
		c1.251,1.447,2.796,2.431,4.635,2.959c1.844,0.522,4.016,0.788,6.515,0.788c1.971,0,3.91-0.163,5.823-0.495
		c1.904-0.328,3.577-0.625,5.026-0.887c0.919,2.499,1.579,5.097,1.97,7.793c0.396,2.698,0.595,5.101,0.595,7.199
		c0,1.449-0.033,2.667-0.099,3.65c-0.066,0.99-0.162,1.944-0.294,2.863c-6.049,1.444-12.296,2.167-18.742,2.167
		c-11.97,0-21.11-2.792-27.423-8.382c-6.312-5.59-9.472-14.697-9.472-27.324v-46.164H421.792z M369.912,225.196
		c-1.579-0.261-3.288-0.491-5.131-0.687c-1.842-0.201-3.484-0.3-4.93-0.3c-6.443,0-11.541,1.151-15.292,3.453
		c-3.747,2.3-5.62,6.018-5.62,11.146c0,3.421,0.725,6.047,2.17,7.891c1.443,1.845,3.188,3.19,5.226,4.045
		c2.041,0.854,4.213,1.382,6.512,1.579c2.303,0.196,4.311,0.294,6.018,0.294c1.975,0,3.947-0.163,5.92-0.491
		c1.972-0.332,3.683-0.626,5.13-0.89v-26.041H369.912z M369.912,204.877c0-3.155-0.526-5.722-1.579-7.693
		c-1.053-1.973-2.497-3.518-4.341-4.635c-1.841-1.119-4.111-1.875-6.808-2.271c-2.695-0.394-5.686-0.593-8.977-0.593
		c-7.1,0-14.662,1.382-22.687,4.143c-1.84-3.421-3.219-6.644-4.143-9.666c-0.917-3.025-1.379-6.641-1.379-10.853
		c5.789-1.97,11.573-3.418,17.361-4.338c5.786-0.921,11.18-1.38,16.175-1.38c13.681,0,24.368,3.286,32.062,9.864
		c7.691,6.574,11.541,17.095,11.541,31.563v59.184c-4.604,1.448-10.197,2.829-16.77,4.144c-6.576,1.315-14.006,1.973-22.291,1.973
		c-6.708,0-12.858-0.591-18.448-1.775c-5.59-1.183-10.389-3.157-14.398-5.918c-4.014-2.761-7.104-6.313-9.275-10.652
		c-2.169-4.342-3.255-9.67-3.255-15.979c0-6.314,1.346-11.606,4.043-15.885c2.699-4.272,6.185-7.692,10.453-10.256
		c4.279-2.566,9.046-4.407,14.305-5.525c5.263-1.118,10.522-1.68,15.785-1.68c3.811,0,8.018,0.201,12.625,0.594V204.877
		L369.912,204.877z M169.176,170.08c8.68-1.688,19.044-2.035,28.708-0.121v101.995c-4.736,0.789-9.34,1.182-13.813,1.182
		c-4.338,0-10.161-0.273-14.895-1.062v-19.946v-26.315V170.08z M93.52,250.251c3.552,1.052,7.631,1.58,12.232,1.58
		c18.893,0,28.21-15.053,28.21-31.764c0-12.827-6.521-28.404-22.291-28.404c-13.632,0-18.151,12.112-18.151,23.869V250.251z
		 M65.507,169.76c1.84-0.394,3.649-0.656,5.425-0.788c1.774-0.135,3.783-0.197,6.017-0.197c3.683,0,10.789,0.27,14.604,1.058
		l-0.004,14.727c1.184-2.107,2.632-4.183,4.338-6.215c1.71-2.039,3.782-3.848,6.214-5.427c2.436-1.579,5.166-2.86,8.19-3.848
		c3.024-0.986,6.379-1.479,10.059-1.479c5.657,0,10.951,1.049,15.885,3.155c4.929,2.104,9.237,5.296,12.919,9.566
		c3.684,4.278,6.546,9.635,8.584,16.081c2.036,6.443,3.056,14.073,3.056,22.885c0,8.548-1.248,16.21-3.746,22.985
		c-2.499,6.772-6.114,12.525-10.854,17.263c-4.734,4.735-10.52,8.384-17.358,10.945c-6.839,2.567-14.601,3.848-23.28,3.848
		c-2.232,0-4.438-0.095-6.607-0.294c-2.173-0.198-3.978-0.428-5.427-0.69v38.622c-9.244,2.248-19.083,2.201-28.013,0V169.76z
		 M169.275,159.582c-1.551-8.81-1.507-15.72,0-24.525c2.239-0.397,4.639-0.692,7.204-0.888c2.562-0.195,4.896-0.297,7-0.297
		c2.238,0,4.671,0.102,7.3,0.297c2.627,0.192,5.064,0.488,7.301,0.888c1.486,8.418,1.486,16.104,0,24.525
		c-2.236,0.394-4.642,0.658-7.202,0.785c-2.559,0.128-4.964,0.198-7.199,0.198c-2.104,0-4.479-0.068-7.102-0.198
		C173.948,160.24,171.513,159.976,169.275,159.582z M508.007,229.537c0.522,7.891,3.286,13.614,8.284,17.163
		c4.996,3.551,11.572,5.328,19.729,5.328c4.473,0,9.042-0.43,13.713-1.283c4.667-0.854,9.104-2.075,13.314-3.65
		c1.444,2.631,2.694,5.788,3.749,9.472c1.051,3.678,1.644,7.628,1.774,11.832c-10.262,3.947-21.834,5.918-34.721,5.918
		c-9.473,0-17.591-1.313-24.363-3.944c-6.773-2.63-12.298-6.281-16.573-10.946c-4.274-4.671-7.431-10.229-9.468-16.671
		c-2.039-6.449-3.058-13.483-3.058-21.11c0-7.497,1.05-14.534,3.153-21.107c2.106-6.578,5.229-12.298,9.372-17.163
		c4.142-4.866,9.271-8.715,15.39-11.546c6.113-2.824,13.253-4.236,21.401-4.236c7.105,0,13.421,1.245,18.94,3.748
		c5.526,2.498,10.227,5.916,14.105,10.259c3.88,4.338,6.809,9.501,8.782,15.484s2.959,12.394,2.959,19.238
		c0,2.495-0.101,4.965-0.297,7.394c-0.2,2.435-0.43,4.373-0.688,5.822H508.007L508.007,229.537z"/>
	<path fill="#E3E3E3" d="M534.008,315.586h-9.911v-18.248h9.911v1.974h-7.717v5.399h7.717v1.875h-7.717v7.027h7.717V315.586z
		 M512.805,315.979h-0.447l-13.317-14.646v14.254h-2.047v-18.69h0.518l13.193,14.657v-14.217h2.099v18.643H512.805z M480.94,315.586
		h-2.144v-18.248h2.144V315.586z M464.891,306.287c0,1.728-0.265,3.233-0.788,4.517c-0.595,1.428-1.52,2.638-2.786,3.624
		c-0.791,0.509-1.653,0.888-2.59,1.133c-0.937,0.247-1.896,0.372-2.884,0.372c-1.132,0-2.248-0.165-3.341-0.495
		s-2.083-0.808-2.972-1.432c-1.118-0.95-1.97-2.077-2.553-3.378c-0.583-1.298-0.875-2.687-0.875-4.165
		c0-0.395,0.007-0.699,0.024-0.911c0.017-0.212,0.065-0.528,0.149-0.938c0.346-2.024,1.265-3.753,2.762-5.19
		c1.494-1.436,3.269-2.281,5.326-2.525c2.122,0,3.853,0.235,5.202,0.714c1.79,0.623,3.123,1.702,3.993,3.23l-1.676,1.457
		c-0.755-1.123-1.675-1.983-2.762-2.59c-1.084-0.609-2.275-0.914-3.578-0.914c-0.589,0-1.198,0.074-1.824,0.223
		c-1.642,0.524-2.941,1.489-3.894,2.896c-0.953,1.407-1.429,2.954-1.429,4.646c0,1.727,0.509,3.273,1.527,4.638
		c0.723,0.902,1.606,1.602,2.64,2.085c1.036,0.483,2.138,0.726,3.305,0.726c0.921,0,1.783-0.152,2.59-0.455
		c0.804-0.302,1.553-0.783,2.242-1.443c0.512-0.509,0.926-1.104,1.244-1.784c0.321-0.687,0.529-1.403,0.629-2.157l-5.399-0.052
		v-1.827h7.716V306.287z M438.825,315.979h-0.443l-13.316-14.646v14.254h-2.044v-18.69h0.516l13.194,14.657v-14.217h2.094V315.979
		L438.825,315.979z M410.715,315.586h-9.912v-18.248h9.912v1.974h-7.718v5.399h7.718v1.875h-7.718v7.027h7.718V315.586z
		 M358.316,299.557c-0.381-0.131-0.781-0.229-1.209-0.297h-2.96v6.265h3.676c0.705-0.212,1.267-0.62,1.676-1.218
		c0.409-0.604,0.618-1.264,0.618-1.985c0-0.609-0.152-1.163-0.445-1.655C359.376,300.174,358.925,299.801,358.316,299.557z
		 M362.407,301.851c0,0.296,0,0.509,0,0.64c0,1.281-0.41,2.38-1.227,3.293c-0.821,0.914-1.897,1.435-3.222,1.565h-3.812v8.235
		h-2.242v-18.248l5.918,0.052c1.297,0.147,2.39,0.62,3.268,1.417S362.407,300.618,362.407,301.851z M333.657,299.557
		c-0.38-0.131-0.78-0.229-1.21-0.297h-2.958v6.265h3.676c0.704-0.212,1.264-0.62,1.675-1.218c0.409-0.604,0.617-1.264,0.617-1.985
		c0-0.609-0.147-1.163-0.443-1.655C334.717,300.174,334.266,299.801,333.657,299.557z M337.748,301.851c0,0.296,0,0.509,0,0.64
		c0,1.281-0.409,2.38-1.224,3.293c-0.822,0.914-1.898,1.435-3.225,1.565h-3.811v8.235h-2.243v-18.248l5.919,0.052
		c1.299,0.147,2.389,0.62,3.267,1.417S337.748,300.618,337.748,301.851z M309.926,308.263l-3.05-7.841l-2.95,7.841H309.926z
		 M315.53,315.586h-2.565l-2.339-5.67h-7.251l-2.347,5.67h-2.361l8.015-18.742h0.59L315.53,315.586z M262.764,315.586h-9.911
		v-18.248h9.911v1.974h-7.719v5.399h7.719v1.875h-7.719v7.027h7.719V315.586z M237.489,315.586h-9.003v-18.248h2.271v16.277h6.732
		V315.586z M209.697,315.586h-2.145v-18.248h2.145V315.586z M186.495,307.824c-0.297-0.196-0.625-0.358-0.987-0.486
		c-0.361-0.123-0.715-0.186-1.062-0.186h-3.525v6.707l3.969-0.045c0.889-0.117,1.589-0.493,2.098-1.123
		c0.508-0.626,0.763-1.363,0.763-2.209c0-0.532-0.104-1.021-0.307-1.469C187.238,308.573,186.922,308.172,186.495,307.824z
		 M186.989,301.628c-0.183-0.771-0.589-1.367-1.223-1.784c-0.633-0.421-1.359-0.632-2.183-0.632h-2.663v6.163h3.404
		c0.853-0.131,1.519-0.474,1.998-1.036c0.474-0.558,0.713-1.248,0.713-2.071c0-0.099-0.008-0.213-0.025-0.341
		C186.996,301.793,186.989,301.693,186.989,301.628z M188.689,304.218c-0.479,0.84-1.191,1.397-2.144,1.677
		c1.1,0.215,1.972,0.774,2.612,1.675c0.591,0.843,0.889,1.811,0.889,2.912c0,0.818-0.161,1.589-0.481,2.294
		c-0.319,0.704-0.802,1.305-1.443,1.794c-0.395,0.248-0.828,0.459-1.306,0.634c-0.477,0.171-0.964,0.299-1.454,0.381h-6.537v-18.248
		l5.672,0.052c1.315,0,2.442,0.478,3.379,1.43c0.938,0.954,1.403,2.047,1.403,3.279C189.279,302.82,189.083,303.526,188.689,304.218
		z M167.188,306.287c0-2.086-0.758-3.854-2.272-5.302c-1.511-1.443-3.327-2.166-5.448-2.166c-2.089,0-3.856,0.754-5.304,2.266
		c-1.444,1.514-2.171,3.33-2.171,5.45c0,2.089,0.754,3.851,2.257,5.294c1.505,1.435,3.326,2.152,5.463,2.152
		c2.086,0,3.855-0.755,5.303-2.267C166.463,310.204,167.188,308.394,167.188,306.287z M169.455,306.339
		c0,2.695-0.951,4.995-2.848,6.891c-1.899,1.902-4.196,2.849-6.892,2.849c-2.729,0-5.062-0.905-7.004-2.711
		c-1.989-1.855-2.981-4.118-2.981-6.779c0-2.7,0.947-4.992,2.848-6.893c1.897-1.9,4.195-2.852,6.891-2.852
		c2.729,0,5.076,0.921,7.04,2.751C168.474,301.429,169.455,303.675,169.455,306.339z M145.363,315.586h-2.39l-2-13.787
		l-5.811,14.285l-0.615-0.009l-5.68-14.321l-2.176,13.835l-2.264-0.003l3.625-18.742h0.765l6.238,15.167l6.117-15.167h0.762
		L145.363,315.586z"/>
	<g id="logo">
		<path fill="#0095DA" d="M308.161,271.954c-5.128,0.789-9.995,1.182-14.599,1.182c-23.965,0-25.706-30.884-33.561-50.826
			C289.452,222.943,293.218,238.418,308.161,271.954"/>
		<path fill="#8ED8F8" d="M259.976,216.907c6.756-21.373,4.873-48.133,30.036-48.133c4.866,0,9.666,0.395,14.402,1.183
			C291.155,203.107,289.609,216.273,259.976,216.907"/>
		<path fill="#F38C29" d="M256.705,222.31c-7.785,19.957-9.402,50.826-33.374,50.826c-4.603,0-9.47-0.393-14.599-1.182
			C223.571,238.383,226.624,221.674,256.705,222.31"/>
		<path fill="#FFCB05" d="M212.483,169.959c4.338-0.789,9.141-1.184,14.397-1.184c25.133,0,23.188,26.785,29.851,48.133
			C225.515,216.593,225.625,203.148,212.483,169.959"/>
	</g>
</g>
</svg>
